<svg width="20" height="20" viewBox="0 0 20 20" fill="none" xmlns="http://www.w3.org/2000/svg">
<path d="M13.7426 0C10.3023 0 7.51013 2.79215 7.51013 6.23247C7.51013 7.03023 7.70957 7.77812 7.9838 8.50109L0.729199 15.6809C-0.243066 16.6532 -0.243066 18.2985 0.729199 19.2708C1.2278 19.7694 1.87597 19.9688 2.52415 19.9688C3.17233 19.9688 3.8205 19.7445 4.3191 19.2708L11.4989 12.0162C12.1969 12.2904 12.9448 12.4899 13.7675 12.4899C17.2079 12.4899 20 9.69772 20 6.2574C20 5.85852 20 5.45964 19.9252 5.0857L17.507 7.50389H12.521V2.51792L14.9392 0.0997195C14.5653 0.0249299 14.1664 0.0249299 13.7675 0.0249299L13.7426 0ZM2.52415 16.2044C3.22219 16.2044 3.77064 16.7529 3.77064 17.4509C3.77064 18.149 3.22219 18.6974 2.52415 18.6974C1.82611 18.6974 1.27766 18.149 1.27766 17.4509C1.27766 16.7529 1.82611 16.2044 2.52415 16.2044Z" fill="#F2F2F2"/>
</svg>
